<?xml version="1.0" encoding="utf-8"?>
<!-- Generator: Adobe Illustrator 21.0.0, SVG Export Plug-In . SVG Version: 6.00 Build 0)  -->
<svg version="1.1" id="Layer_1" xmlns="http://www.w3.org/2000/svg" xmlns:xlink="http://www.w3.org/1999/xlink" x="0px" y="0px"
	 viewBox="0 0 566.9 566.9" style="enable-background:new 0 0 566.9 566.9;" xml:space="preserve">
<style type="text/css">
	.st0{fill:#585857;}
	.st1{fill:#95D600;}
	.st2{fill:#FFFFFF;}
</style>
<circle class="st0" cx="291.7" cy="277.5" r="245.8"/>
<g>
	<path class="st1" d="M344.7,258.9H229.8V116.4H316v56.9h28.7V258.9z M287.3,173.3v-28.2h-28.7v28.2H287.3z M316,229.2v-28.3h-57.4
		v28.3H316z"/>
	<polygon class="st2" points="202.1,145.1 202.1,116.4 144.7,116.4 87.2,173.8 87.2,258.9 202.1,258.9 202.1,230.2 115.9,230.2 
		115.9,145.1 	"/>
	<g>
		<polygon class="st2" points="144.7,434.4 201.6,434.4 201.6,405.7 116,405.7 		"/>
		<polygon class="st2" points="87.2,292.2 87.2,377.4 115.9,406.1 115.9,320.9 201.6,320.9 201.6,292.2 		"/>
	</g>
	<polygon class="st2" points="401.6,405.6 401.6,349 430.1,349 430.1,320.4 401.6,320.4 401.6,292.3 373.1,292.3 373.1,434.5 
		458.9,434.5 458.9,405.6 	"/>
	<path class="st2" d="M258.8,376.8l-28.7-0.1v57.9H345l-0.3-142.2h-85.9v28.1H316V349h-57.2L258.8,376.8z M315.9,405.6h-57.1v-28.9
		h57.1V405.6z"/>
</g>
</svg>
